<svg width="300" height="200" viewBox="0 0 300 200" fill="none" xmlns="http://www.w3.org/2000/svg">
<rect x="5" y="5" width="290" height="190" rx="5" stroke="#CC3E4A" stroke-width="10"/>
<path d="M106.699 115L150 40L193.301 115H106.699Z" stroke="#CC3E4A" stroke-width="10"/>
<path d="M153.492 72.5469L152.895 90.0898H147.375L146.742 72.5469H153.492ZM150.117 98.3867C148.219 98.3867 146.672 96.875 146.707 94.9766C146.672 93.1133 148.219 91.6016 150.117 91.6016C151.91 91.6016 153.527 93.1133 153.527 94.9766C153.527 96.875 151.91 98.3867 150.117 98.3867Z" fill="#CC3E4A"/>
<path d="M92.0977 163V137.547H110.273V142.961H98.7773V147.566H109.324V152.98H98.7773V157.586H110.238V163H92.0977ZM113.789 163V137.547H124.617C130.312 137.547 134.039 140.781 134.039 146.16C134.039 149.676 132.422 152.172 129.68 153.473L134.883 163H127.605L123.105 154.527H120.469V163H113.789ZM120.469 149.289H123.07C125.602 149.289 127.043 148.375 127.043 146.16C127.043 143.91 125.602 142.891 123.07 142.891H120.469V149.289ZM137.062 163V137.547H147.891C153.586 137.547 157.312 140.781 157.312 146.16C157.312 149.676 155.695 152.172 152.953 153.473L158.156 163H150.879L146.379 154.527H143.742V163H137.062ZM143.742 149.289H146.344C148.875 149.289 150.316 148.375 150.316 146.16C150.316 143.91 148.875 142.891 146.344 142.891H143.742V149.289ZM184.805 150.273C184.805 158.746 179.391 163.352 172.5 163.352C165.539 163.352 160.16 158.711 160.16 150.273C160.16 141.801 165.539 137.195 172.5 137.195C179.391 137.195 184.805 141.801 184.805 150.273ZM177.914 150.273C177.914 145.598 175.98 143.031 172.5 143.031C168.984 143.031 167.051 145.598 167.051 150.273C167.051 154.949 168.984 157.516 172.5 157.516C175.98 157.516 177.914 154.949 177.914 150.273ZM188.074 163V137.547H198.902C204.598 137.547 208.324 140.781 208.324 146.16C208.324 149.676 206.707 152.172 203.965 153.473L209.168 163H201.891L197.391 154.527H194.754V163H188.074ZM194.754 149.289H197.355C199.887 149.289 201.328 148.375 201.328 146.16C201.328 143.91 199.887 142.891 197.355 142.891H194.754V149.289Z" fill="#CC3E4A"/>
</svg>
