<svg width="300" height="200" viewBox="0 0 300 200" fill="none" xmlns="http://www.w3.org/2000/svg">
<rect x="5" y="5" width="290" height="190" rx="5" stroke="#0769B7" stroke-width="10"/>
<rect x="55" y="45" width="190" height="50" rx="25" stroke="#0769B7" stroke-width="10"/>
<path d="M67 70C67 62.8203 72.8203 57 80 57H167V83H80C72.8203 83 67 77.1797 67 70V70Z" fill="#0769B7"/>
<path d="M81.6738 153V127.547H88.3535V147.586H98.7246V153H81.6738ZM110.783 153.352C104.631 153.352 100.939 149.379 100.939 143.508C100.939 137.637 104.631 133.664 110.783 133.664C116.936 133.664 120.592 137.637 120.592 143.508C120.592 149.379 116.936 153.352 110.783 153.352ZM110.818 148.43C112.682 148.43 113.807 146.496 113.807 143.473C113.807 140.414 112.682 138.516 110.818 138.516C108.885 138.516 107.725 140.414 107.725 143.473C107.725 146.496 108.885 148.43 110.818 148.43ZM122.561 147.727C122.561 143.508 125.689 141.891 129.592 141.645L134.057 141.469V139.922C134.057 138.867 133.178 138.27 131.877 138.27C130.506 138.27 129.627 138.867 129.451 140.062H123.299C123.545 136.582 126.357 133.664 131.982 133.664C137.291 133.664 140.701 136.266 140.701 139.957V153H134.479V150.328H134.338C133.213 152.402 131.314 153.316 128.783 153.316C125.127 153.316 122.561 151.523 122.561 147.727ZM128.818 147.34C128.818 148.465 129.697 149.062 130.928 149.062C132.58 149.062 134.127 148.008 134.092 146.215V145.195C133.424 145.213 131.666 145.283 130.787 145.371C129.592 145.512 128.818 146.32 128.818 147.34ZM151.002 153.246C146.889 153.246 143.443 150.047 143.443 143.473C143.443 136.582 147.1 133.664 150.932 133.664C153.814 133.664 155.572 135.316 156.311 137.215H156.416V127.547H163.061V153H156.486V149.871H156.311C155.537 151.77 153.744 153.246 151.002 153.246ZM153.393 148.148C155.396 148.148 156.592 146.32 156.592 143.438C156.592 140.555 155.396 138.797 153.393 138.797C151.424 138.797 150.299 140.555 150.299 143.438C150.299 146.355 151.424 148.148 153.393 148.148ZM166.576 153V133.91H173.221V153H166.576ZM169.881 131.836C168.053 131.836 166.576 130.465 166.576 128.777C166.576 127.09 168.053 125.719 169.881 125.719C171.709 125.719 173.186 127.09 173.186 128.777C173.186 130.465 171.709 131.836 169.881 131.836ZM183.416 142.207V153H176.771V133.91H183.064V137.496H183.275C184.119 135.105 186.299 133.664 189.111 133.664C193.154 133.664 195.791 136.617 195.756 140.836V153H189.111V142.207C189.146 140.238 188.092 139.078 186.299 139.078C184.541 139.078 183.416 140.238 183.416 142.207ZM208.342 160.559C202.646 160.559 199.342 157.957 199.061 154.301H205.494C205.705 155.531 206.9 156.059 208.518 156.059C210.381 156.059 211.717 155.285 211.717 152.965V149.695H211.541C210.803 151.594 208.799 152.754 206.162 152.754C202.049 152.754 198.604 150.012 198.604 143.438C198.604 136.582 202.26 133.664 206.092 133.664C208.975 133.664 210.732 135.316 211.471 137.215H211.646V133.91H218.291V153C218.291 157.852 214.318 160.559 208.342 160.559ZM208.553 148.008C210.557 148.008 211.752 146.32 211.752 143.438C211.752 140.555 210.557 138.797 208.553 138.797C206.584 138.797 205.459 140.555 205.459 143.438C205.459 146.355 206.584 148.008 208.553 148.008Z" fill="#0769B7"/>
</svg>
